<?xml version="1.0" encoding="UTF-8" standalone="no"?><svg xmlns="http://www.w3.org/2000/svg" xmlns:xlink= "http://www.w3.org/1999/xlink" width="600" height="390" aria-label="A chart." style="overflow: hidden;"><defs id="_ABSTRACT_RENDERER_ID_13"></defs><rect x="0" y="0" width="600" height="390" stroke="none" stroke-width="0" fill="#ffffff"></rect><g><text text-anchor="start" x="115" y="52.05" font-family="Arial" font-size="13" font-weight="bold" stroke="none" stroke-width="0" fill="#000000">Number of Web2 Dev vs. Web3 Dev</text><rect x="115" y="41" width="371" height="13" stroke="none" stroke-width="0" fill-opacity="0" fill="#ffffff"></rect></g><g><path d="M301,184L301,208L293.4651376564823,112.18943407088594L293.4651376564823,88.18943407088594" stroke="#a52b0e" stroke-width="1" fill="#a52b0e"></path><path d="M301,184L293.4651376564823,88.18943407088594A120,96,0,0,1,301,88L301,184A0,0,0,0,0,301,184" stroke="#dc3912" stroke-width="1" fill="#dc3912"></path></g><g><path d="M421,184L421,208A120,96,0,0,1,181,208L181,184A120,96,0,0,0,421,184" stroke="#264d99" stroke-width="1" fill="#264d99"></path><path d="M301,184L301,88A120,96,0,1,1,293.4651376564823,88.18943407088594L301,184A0,0,0,1,0,301,184" stroke="#3366cc" stroke-width="1" fill="#3366cc"></path><text text-anchor="start" x="291.0611756133439" y="264.1096220342263" font-family="Arial" font-size="13" stroke="none" stroke-width="0" fill="#ffffff">99%</text></g><g><g><g><text text-anchor="end" x="486" y="233.0153893695921" font-family="Arial" font-size="13" stroke="none" stroke-width="0" fill="#222222">Web2</text><text text-anchor="end" x="486" y="250.03269468479607" font-family="Arial" font-size="13" stroke="none" stroke-width="0" fill="#222222">Dev</text></g><g><text text-anchor="end" x="486" y="271.06730531520395" font-family="Arial" font-size="13" stroke="none" stroke-width="0" fill="#9e9e9e">99%</text></g></g><g><path d="M304.5,256.5L434,256.5L434,256.5L486.5,256.5" stroke="#636363" stroke-width="1" stroke-opacity="0.7" fill-opacity="1" fill="none"></path><circle cx="304.5" cy="256.5" r="2" stroke="none" stroke-width="0" fill-opacity="0.7" fill="#636363"></circle></g><g><g><text text-anchor="start" x="115" y="89.01538936959209" font-family="Arial" font-size="13" stroke="none" stroke-width="0" fill="#222222">Web3</text><text text-anchor="start" x="115" y="106.03269468479604" font-family="Arial" font-size="13" stroke="none" stroke-width="0" fill="#222222">Dev</text></g><g><text text-anchor="start" x="115" y="127.06730531520394" font-family="Arial" font-size="13" stroke="none" stroke-width="0" fill="#9e9e9e">1%</text></g></g><g><path d="M298.5,112.5L168,112.5L168,112.5L115.5,112.5" stroke="#636363" stroke-width="1" stroke-opacity="0.7" fill-opacity="1" fill="none"></path><circle cx="298.5" cy="112.5" r="2" stroke="none" stroke-width="0" fill-opacity="0.7" fill="#636363"></circle></g></g><g></g></svg>