<?xml version="1.0" standalone="no"?>
<!DOCTYPE svg PUBLIC "-//W3C//DTD SVG 20010904//EN"
 "http://www.w3.org/TR/2001/REC-SVG-20010904/DTD/svg10.dtd">
<svg version="1.0" xmlns="http://www.w3.org/2000/svg"
 width="1272.000000pt" height="776.000000pt" viewBox="0 0 1272.000000 776.000000"
 preserveAspectRatio="xMidYMid meet">
<metadata>
Created by potrace 1.16, written by Peter Selinger 2001-2019
</metadata>
<g transform="translate(0.000000,776.000000) scale(0.100000,-0.100000)"
fill="#000000" stroke="none">
<path d="M4484 7302 c-28 -6 -62 -41 -73 -76 -6 -19 -9 -1223 -8 -3241 2
-2594 4 -3214 15 -3233 33 -57 -89 -53 1739 -59 1595 -6 1681 -5 1716 12 74
35 69 -117 66 1809 -2 1764 -6 2063 -28 2105 -45 84 -51 -111 -48 -1642 l2
-1368 -45 8 c-25 5 -786 8 -1692 7 l-1648 -1 0 356 c0 395 0 3357 0 4127 l0
490 58 -6 c31 -4 789 -5 1684 -4 1496 1 1627 0 1633 -15 4 -9 6 -170 5 -358
-1 -309 4 -412 26 -485 7 -23 20 -23 29 0 29 72 33 191 31 839 -3 732 1 694
-67 729 -29 15 -179 16 -1704 12 -919 -1 -1680 -5 -1691 -6z m1366 -83 c3 -1
9 -1 14 0 6 1 450 2 989 2 748 0 983 -3 994 -12 12 -10 14 -48 13 -208 -3
-273 -9 -354 -28 -346 -20 7 -3231 6 -3297 -1 l-53 -7 -4 274 c-3 222 -1 277
10 291 13 16 64 17 686 12 369 -2 673 -5 676 -5z m2013 -6036 c-3 -294 -7
-391 -16 -401 -17 -17 -3312 -21 -3344 -4 -26 14 -32 73 -27 272 2 80 3 226 4
325 l0 180 1650 -2 c922 -2 1667 1 1688 6 20 5 40 9 43 10 3 1 4 -173 2 -386z"/>
<path d="M505 6508 c-53 -19 -93 -56 -120 -113 -88 -179 86 -368 273 -297 l52
20 36 -71 c57 -113 108 -173 186 -219 43 -25 48 -38 48 -143 l-1 -80 -77 -35
c-114 -52 -213 -153 -276 -280 -70 -143 -97 -261 -103 -456 -6 -155 -5 -162
16 -183 25 -25 24 -25 211 -7 80 8 146 13 148 11 2 -2 -7 -9 -19 -16 -58 -30
-157 -120 -216 -194 -190 -238 -278 -599 -244 -1003 9 -111 15 -116 136 -107
50 3 128 12 175 20 47 8 124 17 172 20 l86 7 -13 -68 c-7 -38 -22 -150 -34
-249 -12 -99 -31 -229 -41 -290 -11 -60 -22 -132 -25 -160 -7 -58 -50 -219
-106 -393 -21 -67 -39 -129 -39 -137 0 -8 -4 -23 -10 -33 -5 -9 -19 -51 -31
-92 -11 -41 -41 -145 -65 -230 -24 -85 -64 -220 -88 -300 -25 -80 -54 -179
-65 -220 -31 -114 -98 -339 -116 -390 -9 -25 -18 -64 -20 -87 l-4 -43 52 -14
c118 -32 117 -33 160 64 26 58 188 442 240 570 17 41 55 131 84 199 30 68 74
172 98 230 24 58 80 191 124 296 45 104 81 195 81 202 0 8 14 44 31 81 33 70
49 120 105 322 69 251 114 444 114 493 0 47 14 35 48 -40 18 -43 54 -120 78
-170 24 -51 44 -96 44 -99 0 -7 20 -54 66 -150 18 -39 42 -95 54 -125 12 -30
40 -94 64 -144 24 -49 53 -115 65 -145 13 -30 36 -82 52 -115 16 -34 29 -64
29 -68 0 -3 13 -36 30 -71 16 -36 36 -82 45 -103 30 -72 139 -308 145 -313 3
-3 14 -27 25 -55 10 -27 51 -122 90 -210 132 -292 193 -430 200 -455 17 -56
76 -159 94 -165 22 -7 115 18 137 36 8 6 14 24 14 39 0 22 -137 446 -259 805
-6 17 -58 179 -116 360 -132 411 -153 474 -170 505 -7 14 -22 60 -34 103 -12
43 -28 95 -37 115 -8 20 -19 57 -25 81 -5 25 -16 59 -24 76 -7 16 -25 68 -40
115 -57 182 -138 418 -166 479 -16 35 -29 65 -29 66 0 6 75 17 200 30 314 33
341 39 361 76 13 26 -1 133 -32 239 -11 36 -27 90 -36 120 -9 30 -19 60 -23
65 -4 6 -17 39 -29 75 -55 155 -161 319 -282 437 -80 77 -213 166 -274 183
-39 11 -44 15 -30 23 10 5 50 12 89 14 79 5 116 23 116 54 0 15 4 19 16 15 9
-3 84 -28 168 -56 l151 -49 185 14 c102 7 262 19 355 25 94 6 229 15 300 20
72 5 174 12 227 16 63 4 101 11 109 20 7 9 9 34 4 74 -6 51 -11 63 -30 70 -12
5 -114 9 -226 10 -111 0 -204 2 -206 4 -2 2 89 9 201 16 242 15 243 15 232
104 -4 30 -13 59 -20 65 -8 7 -103 7 -297 1 -156 -5 -401 -12 -544 -15 l-260
-6 -235 95 c-129 53 -240 96 -245 96 -6 0 -19 15 -30 33 -33 57 -161 181 -217
209 -64 33 -136 57 -193 65 l-43 5 -17 77 c-9 42 -20 87 -24 100 -6 20 -1 31
30 58 20 18 50 59 65 91 27 54 28 64 28 182 -1 137 -9 193 -30 211 -14 12 -40
7 -169 -28 -38 -11 -115 -32 -170 -47 -55 -14 -108 -31 -117 -36 -10 -6 -28
-10 -40 -10 -22 0 -23 4 -24 79 0 76 -2 81 -37 124 -20 24 -53 53 -74 63 -45
21 -136 28 -178 12z m128 -62 c85 -36 122 -113 98 -203 -13 -46 -54 -77 -119
-91 -62 -12 -91 -3 -137 43 -56 55 -69 116 -37 167 51 82 125 114 195 84z
m607 -171 c0 -2 -22 -42 -49 -88 -67 -113 -146 -176 -270 -217 -42 -13 -44
-13 -62 11 -23 29 -79 144 -79 162 0 11 175 66 370 116 87 22 90 23 90 16z
m35 -248 c-33 -100 -101 -155 -205 -164 -45 -4 -65 -1 -99 17 l-44 22 58 24
c120 48 230 148 279 254 l21 45 3 -75 c2 -48 -3 -91 -13 -123z m-102 -290 c25
-108 27 -104 -50 -109 -38 -3 -69 -4 -71 -2 -2 1 -6 41 -9 87 l-5 86 53 4 c30
2 56 4 59 5 3 1 13 -31 23 -71z m230 -206 c91 -37 144 -74 208 -148 48 -55
117 -173 101 -173 -4 0 -73 30 -153 66 -232 107 -309 132 -309 102 0 -19 128
-89 315 -172 124 -56 184 -84 390 -182 50 -23 101 -46 115 -49 14 -4 43 -18
66 -31 22 -13 61 -26 85 -29 42 -4 685 -14 967 -15 l133 0 -3 -27 -3 -28 -195
-11 c-107 -7 -303 -19 -435 -29 -132 -9 -294 -19 -360 -23 l-120 -7 -125 43
c-177 61 -242 82 -263 82 -9 0 -25 4 -35 10 -23 13 -208 79 -254 91 -20 5 -61
18 -90 30 -147 58 -385 129 -438 129 -79 0 107 -85 380 -175 80 -26 170 -56
200 -67 30 -11 91 -32 135 -48 98 -34 104 -53 20 -61 -109 -10 -588 -59 -735
-75 -356 -38 -391 -41 -408 -30 -16 10 -7 227 13 331 17 89 62 225 75 225 5 0
14 16 20 36 18 54 138 167 221 209 102 52 165 65 294 61 96 -3 120 -7 188 -35z
m597 -376 c30 -13 84 -36 120 -52 63 -27 71 -28 230 -28 163 0 558 10 802 21
123 5 126 5 133 -16 4 -12 5 -24 2 -26 -4 -5 -127 -14 -382 -29 -55 -3 -110
-8 -123 -11 -26 -5 -78 -9 -322 -24 -91 -5 -181 -12 -200 -15 -29 -4 -72 12
-250 93 l-214 98 -12 40 -12 41 87 -34 c47 -19 111 -45 141 -58z m-488 -466
c160 -25 292 -96 414 -221 95 -98 147 -172 209 -299 72 -147 140 -358 160
-501 7 -44 5 -47 -16 -53 -22 -4 -267 -37 -714 -95 -88 -12 -254 -32 -370 -45
-348 -40 -448 -53 -495 -64 -25 -5 -83 -11 -130 -13 l-85 -3 -6 60 c-11 94 -2
311 16 415 63 376 212 607 474 739 151 77 363 108 543 80z m264 -1236 c25
-118 84 -310 214 -698 59 -177 175 -530 384 -1170 103 -313 202 -615 222 -670
19 -55 34 -107 34 -116 0 -16 -46 -36 -57 -25 -3 2 -56 121 -119 263 -63 142
-119 267 -124 278 -5 11 -27 61 -48 110 -57 132 -305 687 -490 1095 -88 195
-192 429 -232 520 -39 91 -98 218 -130 283 -47 93 -55 117 -42 117 9 0 58 5
107 11 292 36 273 36 281 2z m-408 -118 l34 -90 -21 -70 c-23 -81 -117 -443
-136 -525 -26 -115 -71 -244 -157 -445 -14 -33 -46 -109 -71 -170 -101 -244
-311 -744 -461 -1095 l-92 -215 -29 3 c-17 2 -31 5 -33 7 -3 3 70 258 158 550
49 163 170 573 220 745 118 408 142 500 160 615 45 281 71 486 77 608 7 150 0
141 130 153 43 4 89 11 103 15 14 4 38 7 55 6 28 -2 32 -8 63 -92z"/>
<path d="M8702 6359 c-140 -36 -282 -123 -282 -173 0 -39 28 -54 280 -146 41
-15 88 -33 103 -39 l29 -11 -48 -33 c-138 -92 -135 -303 5 -399 23 -16 23 -17
10 -85 -7 -37 -13 -72 -14 -78 0 -5 -12 -9 -25 -9 -91 5 -205 16 -335 33 -186
25 -250 28 -270 11 -17 -14 -21 -141 -6 -217 8 -42 8 -43 -24 -49 -26 -4 -52
3 -121 37 -49 23 -107 50 -129 60 -22 10 -96 45 -165 78 -203 97 -412 191
-426 191 -18 0 -64 -70 -64 -98 0 -24 42 -54 187 -135 65 -36 279 -157 353
-199 44 -25 63 -42 35 -32 -11 4 -146 68 -300 142 -340 163 -340 163 -359 156
-25 -10 -68 -84 -62 -108 4 -13 38 -40 98 -75 51 -30 131 -77 178 -104 47 -28
141 -82 210 -120 69 -38 148 -84 175 -102 136 -88 335 -195 361 -195 16 0 67
14 114 30 47 17 112 39 145 49 l60 18 35 -24 c46 -32 187 -100 225 -108 58
-13 59 -15 14 -44 -85 -54 -134 -134 -145 -238 -12 -109 41 -231 128 -294 30
-21 36 -29 22 -29 -11 0 -69 -24 -129 -54 -131 -64 -215 -137 -306 -262 -72
-101 -109 -185 -109 -253 0 -74 6 -76 168 -62 75 7 148 14 162 16 14 2 66 9
115 15 50 5 106 13 126 16 l36 5 6 -73 c4 -40 11 -129 17 -198 6 -69 14 -147
19 -175 6 -27 12 -93 16 -145 3 -52 12 -144 20 -205 16 -128 37 -326 65 -615
19 -188 34 -333 104 -981 24 -215 42 -299 65 -299 10 0 12 19 14 95 1 31 -12
182 -23 265 -10 75 -38 344 -105 1000 -20 195 -52 499 -71 675 -20 176 -42
385 -50 465 -8 80 -16 155 -19 166 -6 26 10 34 65 34 l38 0 1 -117 c1 -65 6
-158 11 -208 11 -99 40 -445 46 -540 2 -33 8 -103 14 -155 6 -52 17 -189 26
-305 8 -115 22 -280 30 -365 8 -85 21 -229 29 -320 8 -91 23 -259 35 -375 11
-116 20 -235 20 -265 0 -34 6 -64 15 -78 15 -20 21 -21 93 -15 42 3 81 11 85
17 9 13 0 299 -23 746 -5 102 -14 289 -20 415 -6 127 -15 316 -21 420 -5 105
-11 240 -14 300 -2 61 -9 187 -14 280 -6 94 -15 253 -21 355 -6 102 -14 199
-17 216 l-5 31 64 7 c34 3 86 8 113 11 28 3 64 7 80 9 17 3 68 8 115 12 110 9
150 24 150 59 0 44 -38 104 -118 184 -120 119 -254 197 -417 242 -44 12 -86
23 -94 25 -9 3 2 22 33 58 57 67 77 120 78 211 1 114 -53 220 -141 276 -22 14
-19 16 85 42 185 47 286 106 402 233 98 108 161 252 162 366 0 58 24 53 -445
104 -132 14 -241 27 -243 29 -1 1 -6 41 -10 88 l-8 86 49 23 c56 26 90 64 112
127 19 54 19 95 1 154 l-14 46 37 -15 c20 -9 72 -29 116 -46 44 -16 106 -41
138 -54 61 -25 121 -31 132 -14 14 22 6 118 -13 178 -35 105 -73 163 -173 264
-107 107 -159 139 -277 169 -102 26 -296 25 -400 -2z m401 -63 c130 -35 283
-170 355 -314 36 -73 61 -156 49 -168 -2 -2 -64 19 -138 47 -74 28 -174 67
-224 86 -49 19 -124 46 -165 60 -41 14 -79 29 -85 33 -5 4 -39 18 -75 30 -97
34 -302 110 -312 116 -26 16 119 90 226 115 96 22 275 20 369 -5z m-105 -370
c42 -22 80 -67 97 -116 30 -84 -5 -163 -89 -207 -98 -50 -196 -12 -246 94 -29
63 -20 122 29 176 20 22 50 46 66 53 40 18 109 17 143 0z m-1552 -532 c76 -36
211 -99 299 -139 88 -40 204 -94 258 -121 l98 -47 35 16 c19 9 36 17 38 17 2
0 9 -19 15 -42 7 -24 14 -48 17 -55 3 -7 -15 -16 -52 -23 -65 -14 -94 -5 -198
62 -33 21 -63 38 -67 38 -4 0 -49 24 -101 53 -51 30 -184 105 -295 168 -112
63 -203 120 -203 127 0 6 4 12 9 12 4 0 71 -30 147 -66z m947 -34 c97 -11 187
-22 200 -25 26 -6 261 -32 367 -40 41 -4 98 -10 125 -15 28 -5 95 -14 150 -19
236 -24 399 -42 403 -46 8 -8 -31 -133 -61 -194 -40 -82 -155 -201 -247 -254
-169 -98 -435 -133 -625 -83 -75 20 -210 85 -198 96 10 9 85 35 246 85 133 41
247 89 247 105 0 31 -223 -23 -492 -119 -32 -12 -64 -21 -72 -21 -16 0 -112
107 -104 116 3 3 104 45 224 93 121 49 236 96 256 106 37 18 53 39 43 55 -8
14 -239 -65 -382 -131 -24 -10 -46 -19 -51 -19 -5 0 -35 -11 -69 -24 l-60 -23
-26 51 c-14 28 -32 76 -41 106 -18 66 -33 220 -20 220 5 0 89 -9 187 -20z
m-836 -251 c462 -227 508 -249 537 -249 12 0 55 14 95 31 69 29 75 30 84 14 5
-10 25 -35 43 -55 37 -41 41 -50 20 -50 -7 0 -35 -8 -62 -19 -27 -10 -78 -28
-113 -40 l-64 -21 -111 63 c-61 35 -217 125 -346 199 -129 74 -284 164 -345
198 -156 89 -155 88 -149 105 4 8 10 15 14 15 4 0 183 -86 397 -191z m1435
-572 c58 -34 93 -72 119 -131 29 -66 22 -176 -15 -234 -53 -84 -124 -122 -228
-122 -103 0 -175 40 -230 130 -66 108 -20 281 95 355 66 43 189 44 259 2z
m143 -576 c172 -45 382 -173 467 -286 55 -72 52 -81 -29 -88 -264 -23 -432
-40 -588 -57 -444 -50 -635 -72 -700 -80 -38 -5 -71 -7 -74 -4 -9 9 30 111 66
173 45 76 159 193 240 247 65 43 206 99 285 114 79 14 242 4 333 -19z m15
-628 c1 -151 2 -184 20 -453 5 -85 14 -272 20 -415 6 -143 13 -294 15 -335 19
-323 45 -915 58 -1282 l2 -78 -32 0 c-42 0 -33 -56 -88 585 -41 484 -64 745
-95 1085 -16 179 -39 438 -50 575 -22 263 -37 405 -46 429 -6 16 23 24 116 29
30 2 61 4 68 5 9 2 12 -33 12 -145z"/>
<path d="M11325 4913 c-94 -49 -179 -158 -216 -274 -31 -98 -32 -96 108 -140
l72 -22 -5 -41 c-8 -71 -13 -120 -13 -147 -1 -22 -9 -29 -45 -43 -101 -39
-209 -144 -268 -263 -25 -52 -36 -64 -66 -74 -20 -7 -58 -25 -86 -41 -49 -29
-83 -31 -112 -7 -6 5 -62 35 -125 67 -266 137 -415 216 -434 228 -30 22 -43
17 -69 -25 -49 -78 -48 -82 49 -142 47 -30 158 -100 246 -156 88 -57 162 -103
164 -103 1 0 40 -25 86 -55 46 -30 79 -55 75 -55 -5 0 -47 22 -95 49 -47 27
-124 69 -171 94 -47 25 -162 88 -257 141 -94 53 -180 96 -189 96 -22 0 -72
-55 -81 -88 -8 -34 10 -49 287 -235 135 -90 299 -201 365 -245 65 -45 129 -82
141 -82 21 0 174 79 205 106 20 18 29 18 29 -2 0 -28 52 -125 92 -172 23 -26
67 -65 100 -86 l59 -39 -57 -31 c-74 -40 -141 -105 -198 -194 -77 -120 -106
-246 -64 -274 7 -4 43 -5 81 -2 37 4 67 3 67 -2 0 -5 -16 -54 -36 -109 -20
-55 -38 -109 -42 -120 -3 -11 -11 -31 -19 -45 -7 -14 -13 -33 -13 -43 0 -9 -8
-36 -19 -60 -25 -57 -54 -133 -94 -250 -28 -81 -33 -106 -27 -140 5 -23 11
-78 14 -122 8 -106 46 -470 86 -810 10 -93 22 -196 25 -227 4 -31 12 -62 20
-68 18 -15 120 -3 136 16 6 7 12 37 12 66 3 81 -13 500 -23 623 -5 61 -12 206
-16 322 l-6 212 116 233 c63 128 150 304 193 391 l77 157 16 -43 c9 -23 28
-65 43 -92 24 -47 46 -93 193 -403 32 -67 61 -122 66 -122 4 0 8 -7 8 -15 0
-8 27 -70 60 -137 33 -68 81 -170 108 -228 52 -110 150 -313 285 -590 44 -91
101 -210 128 -265 66 -139 74 -147 143 -153 71 -6 90 8 83 58 -2 19 -14 55
-25 80 -11 25 -32 77 -47 115 -14 39 -35 90 -45 115 -10 25 -34 88 -54 140
-19 52 -69 178 -110 279 -42 102 -76 189 -76 194 0 5 -6 23 -14 40 -15 32 -66
163 -191 489 -36 93 -74 187 -85 210 -18 40 -29 67 -95 243 -14 39 -35 87 -45
108 -14 26 -16 37 -7 38 6 0 23 2 37 4 14 2 49 6 79 9 64 6 81 19 81 58 0 100
-191 279 -362 339 -21 7 -38 16 -38 19 0 3 12 13 28 22 86 51 185 184 227 306
33 94 45 265 25 364 -31 161 -119 295 -237 363 -37 22 -43 38 -43 124 0 56 2
62 18 55 9 -4 38 -9 64 -12 46 -4 47 -4 59 35 6 21 14 88 16 149 8 173 -25
259 -121 319 -42 26 -60 30 -125 32 -53 1 -85 -3 -106 -14z m158 -55 c55 -16
101 -66 122 -129 14 -42 17 -72 12 -152 -4 -55 -11 -105 -16 -110 -11 -11
-145 22 -295 73 -50 16 -100 30 -113 30 -37 0 -38 25 -5 93 46 93 89 145 146
177 56 33 88 36 149 18z m-83 -412 c50 -15 57 -28 59 -123 l1 -53 -66 3 -65 2
5 27 c3 15 8 57 12 93 4 36 7 65 8 65 0 0 21 -6 46 -14z m60 -252 c89 -27 140
-66 208 -164 57 -82 74 -149 75 -295 1 -117 -1 -137 -25 -203 -15 -40 -37 -93
-49 -118 -31 -62 -136 -159 -206 -191 -103 -48 -233 -41 -307 16 -51 39 -124
121 -163 183 l-42 67 35 22 c19 11 54 31 77 43 124 66 283 158 327 191 56 41
67 70 23 59 -49 -12 -273 -126 -345 -176 -15 -10 -57 -34 -95 -52 -37 -19
-115 -62 -172 -95 -57 -34 -110 -61 -116 -59 -26 6 -725 473 -725 484 0 20 29
38 43 26 6 -5 125 -74 262 -153 138 -79 284 -162 325 -186 41 -24 84 -43 96
-43 25 0 605 383 643 424 18 19 22 29 14 37 -15 15 -104 -32 -259 -136 -69
-47 -128 -84 -130 -83 -5 6 42 128 70 183 28 56 89 124 155 175 72 55 183 73
281 44z m-1014 -270 c152 -80 283 -144 298 -144 15 0 55 15 89 32 34 18 65 34
68 36 4 2 4 -19 2 -45 -6 -59 -23 -75 -108 -102 l-65 -21 -47 25 c-25 15 -60
37 -78 51 -18 13 -36 24 -40 24 -9 0 -101 56 -240 145 -44 28 -113 72 -152 98
-51 33 -71 51 -67 61 7 18 -29 35 340 -160z m1006 -805 c92 -20 208 -82 286
-154 67 -62 120 -130 109 -141 -2 -3 -112 -16 -243 -29 -303 -31 -391 -41
-539 -60 -162 -20 -165 -20 -165 9 0 42 70 166 132 232 91 96 198 144 345 153
12 0 46 -4 75 -10z m218 -409 c0 -11 16 -61 36 -112 20 -51 45 -118 56 -148
10 -30 25 -68 32 -85 8 -16 47 -115 88 -220 180 -457 243 -617 281 -715 22
-58 98 -249 168 -425 l127 -320 -26 -10 c-25 -11 -27 -10 -48 49 -23 66 -65
158 -81 178 -5 7 -17 31 -26 53 -8 22 -62 137 -120 255 -106 218 -120 249
-302 630 -98 207 -275 569 -376 773 -26 53 -45 98 -41 98 4 1 9 1 12 1 3 0 50
5 105 12 55 7 103 11 108 9 4 -2 7 -13 7 -23z m-350 -12 c0 -2 -88 -181 -196
-398 l-196 -394 6 -66 c3 -36 11 -182 16 -325 6 -143 14 -332 20 -420 5 -88
12 -215 15 -281 l6 -121 -26 4 c-14 3 -25 10 -25 17 0 6 -7 67 -15 136 -23
209 -52 470 -85 776 l-31 290 76 220 c42 120 94 269 116 329 22 61 47 131 55
157 l14 47 58 7 c31 3 77 10 102 14 48 8 90 12 90 8z"/>
</g>
</svg>
