<?xml version="1.0" standalone="no"?>
<!DOCTYPE svg PUBLIC "-//W3C//DTD SVG 20010904//EN"
 "http://www.w3.org/TR/2001/REC-SVG-20010904/DTD/svg10.dtd">
<svg version="1.0" xmlns="http://www.w3.org/2000/svg"
 width="1272.000000pt" height="776.000000pt" viewBox="0 0 1272.000000 776.000000"
 preserveAspectRatio="xMidYMid meet">
<metadata>
Created by potrace 1.16, written by Peter Selinger 2001-2019
</metadata>
<g transform="translate(0.000000,776.000000) scale(0.100000,-0.100000)"
fill="#000000" stroke="none">
<path d="M10064 4841 c-82 -22 -172 -65 -259 -124 -81 -55 -229 -205 -292
-297 -89 -132 -171 -312 -201 -447 l-10 -42 67 -42 c139 -90 273 -252 257
-313 -7 -27 -44 -46 -89 -46 -60 0 -197 -23 -197 -33 0 -20 62 -107 106 -147
73 -67 142 -93 255 -98 66 -3 114 1 158 12 117 30 257 113 384 226 l58 53
-138 90 c-283 185 -353 237 -353 266 0 33 55 101 81 101 11 0 98 -43 192 -96
256 -143 337 -186 348 -182 9 3 -235 169 -291 198 -70 37 -190 122 -190 135 0
22 35 89 55 105 15 12 21 12 49 -4 17 -10 101 -54 186 -98 85 -44 188 -98 228
-120 41 -22 75 -38 76 -36 14 19 60 142 81 213 33 110 44 281 26 377 -30 153
-135 291 -258 339 -82 32 -232 36 -329 10z"/>
<path d="M10026 4085 c-4 -11 15 -29 67 -62 39 -26 101 -65 137 -88 58 -38
206 -130 237 -149 8 -4 18 5 29 25 19 37 29 28 -121 106 -60 31 -123 64 -140
73 -181 100 -203 110 -209 95z"/>
<path d="M9892 3928 c-7 -7 -12 -17 -12 -22 0 -6 104 -79 230 -163 l229 -152
26 31 c14 17 22 34 18 39 -4 4 -96 58 -203 119 -107 62 -213 123 -236 135 -31
18 -44 21 -52 13z"/>
<path d="M9290 3771 c0 -75 13 -187 23 -197 5 -5 238 23 244 29 10 11 -38 76
-102 135 -59 56 -146 122 -159 122 -3 0 -6 -40 -6 -89z"/>
</g>
</svg>
