<svg width="343" height="50" viewBox="0 0 343 50" fill="none" xmlns="http://www.w3.org/2000/svg">
<g clip-path="url(#clip0_3302_479)">
<path d="M195.909 43.3334C206.046 43.3334 214.174 35.137 214.174 25C214.174 14.863 206.046 6.73518 195.909 6.73518C185.772 6.73518 177.645 14.9315 177.645 25C177.668 35.0457 185.864 43.3334 195.909 43.3334ZM171.024 0.0913391H220.886V49.9544H171.024V0.0913391Z" fill="black"/>
<path fill-rule="evenodd" clip-rule="evenodd" d="M98.24 32.5571C95.3177 38.9041 88.9708 43.3334 81.5508 43.3334C71.7109 43.3334 63.6517 35.4795 63.2864 25.7078H106.505V0.0913391H56.6655V49.9544H106.527V32.5571H98.24ZM64.0854 19.5662H98.9021C96.345 11.0731 89.4959 6.73518 81.5737 6.73518C73.6514 6.73518 66.2772 11.3699 64.0854 19.5662Z" fill="black"/>
<path d="M49.9533 0.0913391H0.0913223V49.9544H49.9533V32.5571H41.6886C38.8348 38.9041 32.4194 43.3334 25.068 43.3334C14.9312 43.3334 6.73502 35.0685 6.73502 25C6.73502 14.9315 14.9312 6.73518 25.068 6.73518C32.5564 6.73518 38.9718 11.3014 41.8256 17.7854H49.9533V0.0913391Z" fill="black"/>
<path d="M164.791 32.5571H156.526C154.038 39.1096 147.326 43.2649 139.7 43.2649C129.86 43.2649 121.573 36.1416 121.573 25V0.0913391H113.148V49.9544H164.791V32.5571Z" fill="black"/>
</g>
<path d="M342.273 22.5994L338.423 23.2813C338.262 22.7888 338.006 22.3201 337.656 21.875C337.315 21.4299 336.851 21.0654 336.264 20.7813C335.677 20.4972 334.943 20.3551 334.062 20.3551C332.86 20.3551 331.856 20.625 331.051 21.1648C330.246 21.6951 329.844 22.3816 329.844 23.2244C329.844 23.9536 330.113 24.5407 330.653 24.9858C331.193 25.4309 332.064 25.7955 333.267 26.0796L336.733 26.875C338.74 27.339 340.237 28.054 341.221 29.0199C342.206 29.9858 342.699 31.2405 342.699 32.7841C342.699 34.0909 342.32 35.2557 341.562 36.2784C340.814 37.2917 339.768 38.0871 338.423 38.6648C337.088 39.2424 335.54 39.5313 333.778 39.5313C331.335 39.5313 329.342 39.0104 327.798 37.9688C326.255 36.9176 325.308 35.4261 324.957 33.4943L329.062 32.8693C329.318 33.9394 329.844 34.7491 330.639 35.2983C331.435 35.8381 332.471 36.108 333.75 36.108C335.142 36.108 336.255 35.8191 337.088 35.2415C337.921 34.6544 338.338 33.9394 338.338 33.0966C338.338 32.4148 338.082 31.8419 337.571 31.3778C337.069 30.9138 336.297 30.5635 335.256 30.3267L331.562 29.5171C329.526 29.053 328.021 28.3144 327.045 27.3011C326.079 26.2879 325.596 25.0047 325.596 23.4517C325.596 22.1638 325.956 21.0369 326.676 20.071C327.396 19.1051 328.39 18.3523 329.659 17.8125C330.928 17.2633 332.381 16.9886 334.02 16.9886C336.378 16.9886 338.234 17.5 339.588 18.5227C340.942 19.536 341.837 20.8949 342.273 22.5994Z" fill="black"/>
<path d="M313.218 39.5313C311.106 39.5313 309.288 39.053 307.764 38.0966C306.248 37.1307 305.084 35.8002 304.269 34.1051C303.455 32.41 303.048 30.4688 303.048 28.2813C303.048 26.0654 303.464 24.1099 304.298 22.4148C305.131 20.7102 306.305 19.3797 307.82 18.4233C309.336 17.4669 311.121 16.9886 313.176 16.9886C314.833 16.9886 316.31 17.2964 317.607 17.9119C318.905 18.518 319.951 19.3703 320.747 20.4688C321.552 21.5672 322.03 22.8504 322.181 24.3182H318.048C317.82 23.2955 317.3 22.4148 316.485 21.6761C315.68 20.9375 314.601 20.5682 313.247 20.5682C312.063 20.5682 311.026 20.8807 310.136 21.5057C309.255 22.1212 308.569 23.0019 308.076 24.1477C307.584 25.2841 307.338 26.6288 307.338 28.1818C307.338 29.7727 307.579 31.1458 308.062 32.3011C308.545 33.4565 309.227 34.3513 310.107 34.9858C310.998 35.6203 312.044 35.9375 313.247 35.9375C314.052 35.9375 314.781 35.7907 315.434 35.4972C316.097 35.1941 316.651 34.7633 317.096 34.2046C317.551 33.6458 317.868 32.9735 318.048 32.1875H322.181C322.03 33.5985 321.57 34.858 320.803 35.9659C320.036 37.0739 319.009 37.9451 317.721 38.5796C316.443 39.214 314.942 39.5313 313.218 39.5313Z" fill="black"/>
<path d="M289.917 39.5313C287.871 39.5313 286.086 39.0625 284.562 38.125C283.037 37.1875 281.853 35.876 281.01 34.1903C280.168 32.5047 279.746 30.535 279.746 28.2813C279.746 26.018 280.168 24.0388 281.01 22.3438C281.853 20.6487 283.037 19.3324 284.562 18.3949C286.086 17.4574 287.871 16.9886 289.917 16.9886C291.962 16.9886 293.747 17.4574 295.272 18.3949C296.796 19.3324 297.98 20.6487 298.823 22.3438C299.666 24.0388 300.087 26.018 300.087 28.2813C300.087 30.535 299.666 32.5047 298.823 34.1903C297.98 35.876 296.796 37.1875 295.272 38.125C293.747 39.0625 291.962 39.5313 289.917 39.5313ZM289.931 35.9659C291.257 35.9659 292.355 35.6155 293.226 34.9148C294.098 34.214 294.741 33.2813 295.158 32.1165C295.584 30.9517 295.797 29.6686 295.797 28.2671C295.797 26.875 295.584 25.5966 295.158 24.4318C294.741 23.2576 294.098 22.3154 293.226 21.6051C292.355 20.8949 291.257 20.5398 289.931 20.5398C288.596 20.5398 287.488 20.8949 286.607 21.6051C285.736 22.3154 285.087 23.2576 284.661 24.4318C284.244 25.5966 284.036 26.875 284.036 28.2671C284.036 29.6686 284.244 30.9517 284.661 32.1165C285.087 33.2813 285.736 34.214 286.607 34.9148C287.488 35.6155 288.596 35.9659 289.931 35.9659Z" fill="black"/>
<path d="M262.418 39.0909H253V10H262.716C265.566 10 268.014 10.5824 270.06 11.7472C272.105 12.9025 273.672 14.5644 274.761 16.733C275.86 18.892 276.409 21.482 276.409 24.5028C276.409 27.5331 275.855 30.1373 274.747 32.3153C273.649 34.4934 272.058 36.1695 269.974 37.3438C267.891 38.5085 265.372 39.0909 262.418 39.0909ZM257.389 35.2557H262.176C264.392 35.2557 266.234 34.839 267.702 34.0057C269.17 33.1629 270.268 31.946 270.997 30.3551C271.726 28.7547 272.091 26.804 272.091 24.5028C272.091 22.2206 271.726 20.2841 270.997 18.6932C270.277 17.1023 269.203 15.8949 267.773 15.071C266.343 14.2472 264.567 13.8352 262.446 13.8352H257.389V35.2557Z" fill="black"/>
<defs>
<clipPath id="clip0_3302_479">
<rect width="221" height="50" fill="white"/>
</clipPath>
</defs>
</svg>
